HIERARCHY
ROOT root
{
	OFFSET 0.000000 0.000000 0.000000
	CHANNELS 6 Xposition Yposition Zposition Zrotation Yrotation Xrotation
	JOINT lhip
	{
		OFFSET 0.058581 -0.082280 -0.017664
		CHANNELS 3 Zrotation Yrotation Xrotation
		JOINT lknee
		{
			OFFSET 0.043451 -0.386469 0.008037
			CHANNELS 3 Zrotation Yrotation Xrotation
			JOINT lankle
			{
				OFFSET -0.014790 -0.426874 -0.037428
				CHANNELS 3 Zrotation Yrotation Xrotation
				JOINT ltoe
				{
					OFFSET 0.041054 -0.060286 0.122042
					CHANNELS 3 Zrotation Yrotation Xrotation
					End Site
					{
						OFFSET 0.000000 0.000000 0.000000
					}
				}
			}
		}
	}
	JOINT rhip
	{
		OFFSET -0.060310 -0.090513 -0.013543
		CHANNELS 3 Zrotation Yrotation Xrotation
		JOINT rknee
		{
			OFFSET -0.043257 -0.383688 -0.004843
			CHANNELS 3 Zrotation Yrotation Xrotation
			JOINT rankle
			{
				OFFSET 0.019056 -0.420046 -0.034562
				CHANNELS 3 Zrotation Yrotation Xrotation
				JOINT rtoe
				{
					OFFSET -0.034840 -0.062106 0.130323
					CHANNELS 3 Zrotation Yrotation Xrotation
					End Site
					{
						OFFSET 0.000000 0.000000 0.000000
					}
				}
			}
		}
	}
	JOINT lowerback
	{
		OFFSET 0.004439 0.124404 -0.038385
		CHANNELS 3 Zrotation Yrotation Xrotation
		JOINT upperback
		{
			OFFSET 0.004488 0.137956 0.026820
			CHANNELS 3 Zrotation Yrotation Xrotation
			JOINT chest
			{
				OFFSET -0.002265 0.056032 0.002855
				CHANNELS 3 Zrotation Yrotation Xrotation
				JOINT lowerneck
				{
					OFFSET -0.013390 0.211636 -0.033468
					CHANNELS 3 Zrotation Yrotation Xrotation
					JOINT upperneck
					{
						OFFSET 0.010113 0.088937 0.050410
						CHANNELS 3 Zrotation Yrotation Xrotation
						End Site
						{
							OFFSET 0.000000 0.000000 0.000000
						}
					}
				}
				JOINT lclavicle
				{
					OFFSET 0.071702 0.114000 -0.018898
					CHANNELS 3 Zrotation Yrotation Xrotation
					JOINT lshoulder
					{
						OFFSET 0.122921 0.045205 -0.019046
						CHANNELS 3 Zrotation Yrotation Xrotation
						JOINT lelbow
						{
							OFFSET 0.255332 -0.015649 -0.022946
							CHANNELS 3 Zrotation Yrotation Xrotation
							JOINT lwrist
							{
								OFFSET 0.265709 0.012698 -0.007375
								CHANNELS 3 Zrotation Yrotation Xrotation
								End Site
								{
									OFFSET 0.000000 0.000000 0.000000
								}
							}
						}
					}
				}
				JOINT rclavicle
				{
					OFFSET -0.082954 0.112472 -0.023707
					CHANNELS 3 Zrotation Yrotation Xrotation
					JOINT rshoulder
					{
						OFFSET -0.113228 0.046853 -0.008472
						CHANNELS 3 Zrotation Yrotation Xrotation
						JOINT relbow
						{
							OFFSET -0.260127 -0.014369 -0.031269
							CHANNELS 3 Zrotation Yrotation Xrotation
							JOINT rwrist
							{
								OFFSET -0.269108 0.006794 -0.006027
								CHANNELS 3 Zrotation Yrotation Xrotation
								End Site
								{
									OFFSET 0.000000 0.000000 0.000000
								}
							}
						}
					}
				}
			}
		}
	}
}
MOTION
Frames: 8
Frame Time: 0.033333
1.900634 0.696103 0.877012 -87.599428 -0.325491 89.866291 7.055197 1.395273 -40.118127 -7.641940 5.968746 58.501827 5.744740 13.163620 -27.830677 0.000000 -0.000000 0.000000 1.220123 3.523607 -36.081552 -0.926863 -6.808632 60.171150 -1.763549 -11.249464 -29.779524 0.000000 -0.000000 0.000000 1.061464 3.410959 30.794757 -1.123458 3.060731 -4.858494 -0.169999 2.130296 4.128986 0.839859 -0.225787 -22.762640 2.176517 -10.048783 -16.410560 -24.681270 -2.240402 0.115835 -51.329768 3.106834 6.649779 -0.340136 -15.729037 19.938372 -10.922369 3.818798 2.311420 22.579151 11.642553 1.991887 51.037280 8.439856 12.416985 -7.218109 21.357946 19.666449 7.357958 -4.855672 12.482513 
1.894205 0.698708 0.847521 -88.236847 0.110511 89.142566 9.327426 0.049225 -43.805399 -7.229142 8.304257 67.010726 5.867945 14.317574 -31.275155 0.000000 -0.000000 0.000000 0.925592 5.938453 -39.596712 -1.381867 -7.952095 68.645993 -1.839392 -11.793177 -31.003732 0.000000 -0.000000 0.000000 0.139885 3.417149 34.393320 -0.788012 2.496089 -5.669830 0.236137 1.834260 3.452418 1.045457 1.943425 -25.542946 2.652817 -9.654322 -18.978912 -24.882417 -5.455837 0.983741 -51.938379 2.625145 6.675352 -0.009037 -17.250966 18.412961 -8.917104 4.581907 2.079925 23.744379 13.878491 2.367783 50.213839 10.754078 10.631627 -11.078933 23.511167 12.276348 -0.061322 -2.978104 11.296711 
1.887604 0.700746 0.826620 -88.416070 1.126199 88.934274 9.733349 0.591628 -45.992784 -6.642709 7.093270 72.602138 6.786454 16.047208 -34.988060 0.000000 -0.000000 0.000000 1.490185 6.075883 -41.856330 -1.207866 -8.383742 74.170762 -1.439339 -10.889359 -32.244066 0.000000 -0.000000 0.000000 0.964674 3.227515 36.185257 -0.579133 2.087476 -6.727132 0.350367 0.945948 3.349552 0.917336 2.627702 -27.431505 1.961727 -9.327444 -18.535917 -25.041564 -8.366034 1.345296 -51.281243 0.806724 7.352416 -0.553521 -18.384282 17.334542 -7.011910 3.106452 0.051338 23.431267 16.015799 2.332674 49.654612 13.145120 10.083544 -11.489313 24.769042 8.278695 -3.564982 -0.593359 7.158557 
1.881524 0.701138 0.813731 -89.242604 1.472851 88.767162 10.734843 1.076290 -47.018332 -6.276122 7.746928 76.199959 6.498986 15.910648 -36.759439 0.000000 -0.000000 0.000000 1.366065 5.985999 -42.065468 -1.013159 -9.282743 76.046820 -2.073456 -10.786338 -35.259956 0.000000 -0.000000 0.000000 0.859088 3.314186 36.369617 -0.529749 2.145874 -6.288002 0.406803 0.970454 3.124691 1.205312 3.230433 -28.190815 1.633375 -9.163541 -18.353401 -25.073608 -10.565642 0.374336 -50.379745 -2.233060 7.471993 0.811272 -19.658005 14.295606 -3.768932 2.365302 -0.448413 23.285661 17.606133 1.733000 48.209628 15.321091 10.123089 -10.953151 26.399657 8.964227 -3.796925 0.242994 6.242003 
1.876732 0.701972 0.808552 -89.746838 1.318948 89.272460 11.240609 0.754267 -47.830935 -6.252250 8.406580 77.469113 6.171854 16.273195 -37.401957 0.000000 -0.000000 0.000000 1.419475 5.687259 -42.645334 -0.707375 -9.396752 76.652955 -2.279597 -11.274883 -36.525987 0.000000 -0.000000 0.000000 0.339137 3.425093 37.041757 -0.654662 1.873006 -8.506309 0.646580 0.923255 3.415420 1.286166 3.330113 -28.181657 1.867351 -8.706820 -17.265253 -24.737128 -12.467593 -0.074080 -49.612496 -4.311763 7.547619 3.632133 -22.177304 13.033373 2.199999 2.231745 1.605085 22.920808 19.416749 1.579664 47.248150 16.962357 10.460727 -9.734562 26.697525 11.006119 -6.098867 0.720454 6.423671 
1.873355 0.702792 0.810151 -90.221645 1.529005 88.749465 11.201033 0.221288 -46.813981 -5.692852 7.848836 77.476789 6.012869 17.000355 -37.723706 0.000000 -0.000000 0.000000 1.779989 6.016066 -41.835635 -0.562814 -9.124123 76.627984 -1.709755 -10.363046 -35.709527 0.000000 -0.000000 0.000000 0.491700 3.487585 36.150950 -0.448597 1.654910 -6.615688 0.477212 1.298700 3.249164 0.843987 3.709595 -28.911013 1.758335 -9.002589 -16.528762 -22.852344 -14.899652 -1.081537 -49.204436 -7.482057 7.854579 5.610441 -24.231628 11.391100 3.039569 0.897640 1.213194 21.798927 21.398416 1.072631 47.173251 18.892718 10.450014 -10.527165 26.283191 10.399424 -5.347471 0.768242 6.376604 
1.868807 0.703416 0.818811 -90.333704 1.544101 88.680184 10.709502 -0.470107 -45.328769 -5.362718 7.080109 75.993968 5.931819 17.388467 -37.238404 0.000000 -0.000000 0.000000 2.241479 5.857549 -40.252244 -0.332449 -8.528613 74.707701 -1.651133 -10.112004 -35.042068 0.000000 -0.000000 0.000000 0.380953 3.563494 35.555752 -0.308381 1.200001 -6.885538 0.667749 1.166121 3.547062 0.567517 3.938227 -28.837948 1.552598 -8.829979 -15.994692 -21.630930 -16.397020 -1.696141 -48.193858 -9.579644 8.038770 6.509601 -26.417412 9.715878 3.082878 0.828754 0.077943 21.310523 22.653907 0.679531 47.337457 19.716770 10.960425 -10.903023 26.673640 9.559890 -4.966734 0.583528 5.781068 
1.864652 0.703348 0.831367 -90.214344 1.540180 89.195563 10.135253 -1.011680 -43.918787 -5.353871 6.297159 73.430323 6.119818 17.372018 -36.527990 0.000000 -0.000000 0.000000 2.510231 5.403349 -38.664511 -0.102208 -8.341712 71.476806 -1.623267 -10.477661 -34.804464 0.000000 -0.000000 0.000000 0.295607 3.563683 33.701733 -0.015298 0.826931 -6.732260 0.706061 0.949969 3.626969 0.710245 4.377428 -28.669531 1.120346 -8.638948 -15.057201 -20.461244 -16.318214 -2.567166 -47.773819 -11.674346 8.472374 6.554468 -30.003157 8.866705 2.932942 1.353718 -1.868541 20.860561 22.366332 0.126249 48.029850 20.325821 12.002995 -11.070265 27.987589 9.336583 -4.373834 0.467058 5.297292 
